<svg id="Layer_2" data-name="Layer 2" xmlns="http://www.w3.org/2000/svg" viewBox="0 0 841.89 595.28"><defs><style>.cls-1{fill:#85c61a;}.cls-2{fill:#83c41a;}</style></defs><title>version 10logo flower final svg</title><path class="cls-1" d="M622,209.2c-9.48-11.3-22.88-11.86-25.75-11.9-15.91-.22-26,10.77-28.61,13.85-15,17.79-6.75,41.59-6.32,42.77a37.43,37.43,0,0,0,67.42,3.8l-5.83,0a28.45,28.45,0,0,1-3.63,4.28l-.43.42-.31.3c-.23.21-.5.46-.83.73l-.36.3c-.3.25-.63.51-1,.79l-.55.4c-.29.22-.6.43-.93.65l-.73.46c-.28.17-.55.34-.85.5s-.89.49-1.34.71l-.37.19A22.72,22.72,0,0,1,599,269.65a23.94,23.94,0,0,1-9-2.42c-9.44-4.85-14.83-17.39-13.12-31.26l2.07,0,50.56-1.2C629.77,232.69,631.11,220.07,622,209.2Zm-10.54,18.67H576.86c0-10.44,4.34-19.35,11.58-22.67a16.48,16.48,0,0,1,5.63-1.36c.28,0,.55-.08.85-.08a15.41,15.41,0,0,1,9,2.71C609.89,210.5,612.66,218.88,611.44,227.87Z"/><path class="cls-1" d="M516,302c-9.49-11.3-22.89-11.86-25.76-11.9-15.91-.22-26,10.78-28.61,13.86-15,17.78-6.75,41.58-6.32,42.76a37.42,37.42,0,0,0,67.42,3.81l-5.83,0a29.42,29.42,0,0,1-3.62,4.29l-.44.41-.31.31c-.22.2-.5.45-.83.73l-.36.29c-.3.25-.63.51-1,.79l-.55.41c-.29.21-.6.42-.93.64l-.73.46-.85.51c-.44.25-.89.48-1.34.71l-.37.18a22.82,22.82,0,0,1-12.52,2.24,24.16,24.16,0,0,1-9-2.43c-9.44-4.84-14.82-17.39-13.12-31.26l2.07,0,50.56-1.2C523.78,325.48,525.12,312.86,516,302Zm-10.55,18.67H470.87c.05-10.44,4.34-19.34,11.58-22.66a16.09,16.09,0,0,1,5.63-1.36c.29,0,.55-.08.85-.09a15.64,15.64,0,0,1,9,2.71C503.91,303.3,506.68,311.68,505.45,320.66Z"/><path class="cls-1" d="M427,301.91c-9.49-11.3-22.89-11.85-25.76-11.89-15.91-.22-26,10.77-28.61,13.85-15,17.79-6.75,41.59-6.32,42.77a37.43,37.43,0,0,0,67.42,3.8l-5.83,0a28.41,28.41,0,0,1-3.62,4.29l-.44.42-.31.3c-.22.2-.5.45-.83.73l-.36.3c-.3.25-.63.51-1,.79l-.55.4c-.29.21-.6.43-.93.65l-.73.46-.85.5c-.44.25-.89.49-1.34.71l-.37.19a22.81,22.81,0,0,1-12.52,2.23,23.94,23.94,0,0,1-9-2.42c-9.44-4.85-14.82-17.4-13.12-31.26l2.07,0,50.57-1.21C434.78,325.41,436.12,312.78,427,301.91Zm-10.55,18.68H381.87c.05-10.44,4.34-19.34,11.58-22.66a16.31,16.31,0,0,1,5.63-1.36c.29,0,.55-.08.85-.09a15.64,15.64,0,0,1,9,2.71C414.91,303.22,417.68,311.6,416.45,320.59Z"/><path class="cls-1" d="M643.47,308.3c-9.41,5-10.71,15.43-10.81,16.34-.82,1.07-4.63,5.83-11,6.48a14.58,14.58,0,0,1-4.83-.33q0-12-.1-23.93a24.12,24.12,0,0,0-8.4-13.21c-8.19-6.23-20.59-6.16-31.09.36q-6.74,7.08-13.48,14.17,0-8.79,0-17.58l-32.27.28.12,7.09,12.86.36a7,7,0,0,1,3.12,1.32c2.32,1.79,3.28,5.09,2.64,8.53v61H563l.12-55.93,16.34-14.42c1-.42,8.47-3.3,15.85.72a18.37,18.37,0,0,1,7.93,8.77l.24,60.9h13.45l-.13-35.67h5.06a23.37,23.37,0,0,1,3.36.48c3.38.71,4.49,1.68,6.49,1.92a9.55,9.55,0,0,0,6.24-1.68,11.57,11.57,0,0,1-7-.24,11.35,11.35,0,0,1-3.85-2.41,19.57,19.57,0,0,0,6.49-5.52c10.19-1.12,13.92-4.33,15.37-7.21,1.28-2.53,1.14-5.47,3.85-8.41a13.34,13.34,0,0,1,6-3.6A21,21,0,0,0,643.47,308.3Z"/><path class="cls-1" d="M318.32,297.67l-9,8.52,0-16.53-30.34.26v7l12.2.05a6.45,6.45,0,0,1,2.93,1.24c2.18,1.68,3.08,4.79,2.49,8L296.29,370h12.43v-59.1l8.86-8.52a8.67,8.67,0,0,1,5.82-2.6c7.08.18,9.68,12.79,16.6,12.77a7.55,7.55,0,0,0,6.21-4c2.61-4.88-1.55-12.76-7.11-15.82C333.08,289.45,324.46,291.27,318.32,297.67Z"/><path class="cls-1" d="M702.64,202.93c-6-3.3-14.64-1.48-20.78,4.92l-9,8.52,0-16.53-29.87.26a34.46,34.46,0,0,1-8.14-5c-4.51-4.07-6.8-10.74-6.32-17a21.69,21.69,0,0,1,3.84-10.61l-3.16-.46c-4.92,10.58-4.12,22.2,2.26,29.82a23.66,23.66,0,0,0,11,7.23v2.91l12.2.05a6.48,6.48,0,0,1,2.94,1.24c2.18,1.68,3.08,4.79,2.48,8q-.1,27.54-.2,55.09c-5.36.55-7.69,1.58-12.71,1.08a32,32,0,0,1-5.14-1,14,14,0,0,0,2,1.41c8.82,5,18.05-2.82,29,.85a47.84,47.84,0,0,0,5,1.58,41.27,41.27,0,0,0,9.68,1.17,14.56,14.56,0,0,0,9.64-4c5.15-5,4.1-11.93,4-12.57-.19-1.06-1.26-7.32-6.55-9.56-.26-.11-5.47-2.22-9,.83-1.81,1.54-3.44,4.62-2.26,7a5.32,5.32,0,0,0,4.52,2.63c.09-.18-2.4-.94-2.79-2.78-.31-1.5.85-3.25,2.19-4.07,2.52-1.54,6.5-.22,8.5,2.11a7.07,7.07,0,0,1,1.15,2,.38.38,0,0,1,0-.1,10.41,10.41,0,0,1,.39,1.19l0,.2a10.64,10.64,0,0,1,0,5.62c-1.19,4.13-5,7.25-9.66,8.16a26.63,26.63,0,0,1-4.35.39c-4.6,0-7.16-1.21-10.5-2l-.68-.13,0-50.39,8.87-8.52a8.63,8.63,0,0,1,5.81-2.6c7.09.18,9.68,12.79,16.61,12.77a7.62,7.62,0,0,0,6.21-4C712.36,213.87,708.2,206,702.64,202.93Z"/><path class="cls-1" d="M114.57,272.14a34.38,34.38,0,0,1,17.84-1.58c20.23,3.87,36.44,28.39,39.76,61.22a74.85,74.85,0,0,1-19.88-18.07c-11.46-15.18-11.87-28.57-25.07-36.82A35.23,35.23,0,0,0,114.57,272.14Z"/><path class="cls-1" d="M121.34,340.47c1.41-2.13,7.37-10.66,16.72-11.4,6.83-.55,13.49,3.23,14.34,3.72,4.07,2.36,5.67,4.78,10.28,6.1a19.91,19.91,0,0,0,7.91.57c-6.67,3.21-11.86,3.46-15.25,3.16-8.54-.75-12-5.54-20.22-5.87A25.61,25.61,0,0,0,121.34,340.47Z"/><path class="cls-1" d="M565,367.24c-2.43.44-39.23,7.6-47.89,34.34-4,12.3-1.2,26.22-.45,29.59,2.53,11.41,6.87,15.43,10.84,28.23a93.35,93.35,0,0,1,4.14,27.49A53,53,0,0,0,534,476.57c3.55-27.49-17.2-41-14.23-64.15,1.58-12.33,9-20.64,12-23.95,18.08-20.2,51.67-23.48,56.77-15.13,2.29,3.75-1,10.07-1.65,11.29-2.55,4.87-6,6-14.46,12.65a97.07,97.07,0,0,0-9.79,8.59c-7.5,7.92-10.13,16.95-11.29,20.93-7.17,24.57,9,35.76,1.2,56.47-4.85,12.91-15.51,20.22-14.91,20.78s10.81-5.5,16.72-16.11c11.84-21.27-5.27-40.21,4.29-64.23,2.46-6.17,7.49-14.7,19.05-23,11.87-6.48,16.91-12.91,19.28-17.77.81-1.68,2.48-5.56,4.82-5.57,2.67,0,4.69,5,5,5.72,2.69,6.88.12,15-6.92,28-5,9.29-7.54,13.94-13.71,22-7.94,10.36-16.31,28-17.16,59.94a35,35,0,0,1-3.17,16c-2.8,5.93-5.47,6.92-8.13,13.1-3.65,8.49-2.63,16.52-2.26,16.57s.37-5.84,3.92-12.8c.78-1.53,4.58-9,6.93-8.43,3.85.89-3.11,21.74,5.27,40.35,4.79,10.65,13.09,17.23,18.82,20.94-9.67-9.67-13.81-18.75-15.81-25-4.71-14.69-.1-21.55,1.81-57.38,1.1-20.73-.27-21.58,1.95-30.27,3.69-14.37,11.21-26.75,16.27-35.08,6-9.92,6.55-8.16,10.24-15.36,2.07-4.05,4.09-8.88,6.62-8.74a3.69,3.69,0,0,1,2.56,2c.87,3.33,2.25,8.54,4.07,14.91,4.16,14.59,5.63,17.81,5.57,23.34,0,4.37-1.06,11.09-6.32,19.28A75.25,75.25,0,0,1,605,484.18c-7,7.39-12,9.56-14.91,17-2.71,7-1.59,13.92-.9,14s.69-7.7,5.57-15.36c3.94-6.19,8.66-8.46,12.95-11.6,5.83-4.26,13.22-11.82,19-26.2.76,2.57,1.68,5.94,2.56,9.94a158.59,158.59,0,0,1,3.17,21.08,147.52,147.52,0,0,1-.46,31.78c-1.11,8.89-1.8,14.34-4.51,21.53-3,7.89-5.32,9.68-7.08,16.87-2.53,10.33-.76,19.11-.15,19.12s-.64-9.3,4.21-20.18c3.08-6.91,5.17-6.69,8.44-13.25,1-2.1,3.32-7.11,4.82-25.75.5-6.29,1-14.75.9-24.85,6.22,2.18,15.39,6.52,20.48,15.51,7.35,13,2.15,28.65,3,28.76s7.55-14,3.16-28.76c-4.59-15.5-16.64-15.82-26.05-31.92-7-11.92-4.5-18.82-7.68-42.92a277,277,0,0,0-12.2-52.11A58.17,58.17,0,0,1,633,395.33c19.93,16.52,22.68,41.95,23.49,49.39,1.87,17.27-2,28.45-1.05,28.61,1.22.21,8.88-18.83,5.57-41.11a74.58,74.58,0,0,0-8.89-25.75,39.32,39.32,0,0,1,11.9,2.86c10.07,4.21,15.22,11.52,15.81,11s-3.28-8.43-11.44-14.6c-8.66-6.55-13.39-4.5-22.89-10.39C637,390.08,627.9,380.48,630,375.9s15.19-3,25.14-1.81c14.09,1.74,21.13,2.59,27.41,6.78,17.22,11.48,20.34,40.46,15.66,60.54-4,17.2-11.33,17.6-12.65,34.63-.39,5.08-1.08,22.45,10.24,37.2,3.81,5,9.31,10.06,10.55,9.19,2.22-1.58-15.42-18.36-15.21-40.51.16-17.13,10.85-22.23,15.51-42.47,4-17.35.57-32.88-2.71-42.92-5.17-11.32-11.68-17.09-16.27-20.18-9.45-6.37-16.88-5.73-51.2-10.69-8.79-1.27-15.83-2.46-19.88-3.16C593,359.7,575.31,365.37,565,367.24Z"/><path class="cls-1" d="M258.46,271.46a6.13,6.13,0,0,0,1.46,1.81c2.83,2.36,6.65,1,13.56.11,5.92-.77,9.4-1.23,13.89-.45,4.05.71,4.21,1.6,8.7,2.26,5.52.82,7.06-.27,10.61.45,2.76.56,6.51,2.17,10.51,6.89-2.85-5.47-6.11-7.69-8.59-8.69-5.55-2.27-11.5-.2-14.57-4.07a6.86,6.86,0,0,1-1.24-2.6l-.9-109.33a20.15,20.15,0,0,1,.56-5.08C295.3,141.06,307,140,311,128.82c.43-1.23,3-8.47-.68-14.69-4.35-7.29-14.1-7.75-15.25-7.79,1,.22,9.24,2.12,12.2,9.26,3.12,7.53-2,15.09-2.83,16.27-4.53,6.66-9.77,6.06-16.49,13.66a36.71,36.71,0,0,0-6.09,9.6c.37-6.33,0-17.55-6.82-24.54a58.66,58.66,0,0,0-10.8-8.32c-3.39-2.26-4.73-2.42-7.87-4.71s-5.93-4.33-8.17-8.06A23.71,23.71,0,0,1,245,99.23a48.49,48.49,0,0,1,.33-9.83c.36-3.64.7-4.59.57-7.23-.14-2.84-.63-3.55-.79-6.32a31.09,31.09,0,0,1,.56-7.23c.43-2.1,1.44-5.5,6.74-12.8a103.57,103.57,0,0,1,8.17-9.9,156.47,156.47,0,0,1,21.8-20,108,108,0,0,0-23.15,16.94c-5.31,5.11-7.85,8.65-12.09,14.57-2.56,3.57-4.75,7-5.53,11.63a39.32,39.32,0,0,0-.45,5.2c-.12,3.94.37,5.19.45,8.47.1,4-.55,4.43-.91,9.37a51.76,51.76,0,0,0,.12,10c1.27,8.68,7.48,14.7,9.48,16.45,4.26,3.71,8.21,4.67,15.82,11.37a38.84,38.84,0,0,1,5,4.82c2.07,2.6,6.53,9.48,4.74,23.27q.11,54.56.23,109.1a17.16,17.16,0,0,1-9.38,5A16.82,16.82,0,0,1,258.46,271.46Z"/><polygon class="cls-1" points="518.98 199.86 542.47 200.16 536.45 207.39 534.64 207.39 507.23 276.66 484.64 227.57 462.06 277.56 427.42 208.29 423.5 207.99 417.48 199.56 457.24 199.56 451.21 205.88 445.19 206.49 467.48 250.76 481.93 216.72 476.81 207.39 473.2 206.49 467.18 198.96 506.03 199.26 498.2 206.18 492.78 206.49 512.65 249.25 529.22 207.69 524.85 204.3 518.98 199.86"/><path class="cls-1" d="M296.35,360.13l12.4-.52c.55,1.82,1.11,3.63,1.66,5.45l291.24.45L578.2,368.2a64.42,64.42,0,0,0-24.67,4.16l-265.71-.83a48.86,48.86,0,0,0-10.69.45c-3.48.55-6.28,1-9.19,2.56a20.92,20.92,0,0,0-8.88,10.4c-9,9.65-10.35,15.6-9.71,19.35a34.27,34.27,0,0,1,.67,8.81,50,50,0,0,1-1.05,6.47c-1.29,8.46,2.35,11.37.75,16.87-.62,2.14-2.14,5-6.17,7.83a17.2,17.2,0,0,0,3.61-9.79c0-2.35-.51-3.67-1-6.63a46.71,46.71,0,0,1-.6-11.89,18.18,18.18,0,0,0-6.93.15c-5,1.11-7.75,4.1-11.15,6.93-9.9,8.24-13.08,4.77-17.16,10.39-5.85,8.05-3.92,21.53-3.92,21.53a50.46,50.46,0,0,1-1.65-12.8c0-4.54,0-7.3,1.8-10.09a14,14,0,0,1,7.83-5.57A74.34,74.34,0,0,0,237.52,408l7.08-4.52,6.35-10.3c2.58-4.2,5.43-6.3,6.45-10.63a16.85,16.85,0,0,0,.3-5.88,23,23,0,0,1,7.38-7.23c5.61-3.34,11.95-3.93,15.36-4.21,4.38-.36,6.52.09,10.09-1.36A19.42,19.42,0,0,0,296.35,360.13Z"/><path class="cls-1" d="M270.8,296.24a9.24,9.24,0,0,0-6.17-6.33,26.7,26.7,0,0,0-14.31.91,27.71,27.71,0,0,0-6.47,4.21,27.27,27.27,0,0,0-4.29,4.74,35.63,35.63,0,0,0-26.1-9.4c-14.42,1.11-30.19,13.12-29.37,28.54.61,11.33,9.94,19.71,20.46,23.32-1.79,1-3.66,2.23-5.59,3.58a78.18,78.18,0,0,0-9.1,7.5c-1.5,1.79-4.88,6.3-3.54,10.09,1.94,5.46,12.54,6.62,17.17,6.63l6,0A81.77,81.77,0,0,0,197.24,376c-3.46,2-5.32,3.14-7.38,5.12-2.57,2.46-8.51,8.19-7.53,15.43,1,7.62,9,11.61,10,12.12a59.66,59.66,0,0,0,10.16,3.54c15.89,4,35.17,1.89,46.84-7.9,6.09-5.12,9.73-12,10.31-15.89.09-.62.16-1.24.16-1.24a24.28,24.28,0,0,0-1.74-10.43c-2.9-6.89-12.73-11.79-19.65-13.78a62.63,62.63,0,0,0-19-1.81c-.26,0-2.71.17-6,.3-2.68.11-4,.17-5.42.15-6.13,0-8.1-1-9-1.5a5.31,5.31,0,0,1-2.41-2.26,5.57,5.57,0,0,1-.15-3.92c.22-.79.91-2.87,5.57-6.55a45.61,45.61,0,0,1,6.19-4.09,33.48,33.48,0,0,0,7.55.94c15.3.07,32-11.46,32.3-26.43A23.33,23.33,0,0,0,241.73,302a10.26,10.26,0,0,1,7.47-6.81,12.1,12.1,0,0,1,3.68-.07,11.47,11.47,0,0,1,2.26.52,7.07,7.07,0,0,1,1.74,1.59c1,1.28,1,2.33,1.58,3.53a7.78,7.78,0,0,0,3.08,3.32,9.63,9.63,0,0,0,3.84.45,6.29,6.29,0,0,0,3.92-1.36,6.2,6.2,0,0,0,1.81-4.36A7.28,7.28,0,0,0,270.8,296.24Zm-57.89,73.84c3,0,5.47,0,7.3.1a66.33,66.33,0,0,1,11.59,1.05c.61.12,1.76.36,3.16.75,5.13,1.44,11.75,3.29,14.54,8.44a12.76,12.76,0,0,1,1.05,8.58,30.16,30.16,0,0,1-7.45,12.8c-12.53,12.56-32.06,8.13-37.28,6.4a24.17,24.17,0,0,1-8.58-4.74,15,15,0,0,1-4.67-5.8c-2.17-5.4.48-10.67,1-11.67.83-1.66,2-3.33,6.63-7.08A100.94,100.94,0,0,1,212.91,370.08ZM216,332.15c-8.73,0-15.81-6.67-15.81-14.9s7.08-14.91,15.81-14.91,15.81,6.67,15.81,14.91S224.78,332.15,216,332.15Z"/><path class="cls-1" d="M652.51,143.51a8.58,8.58,0,0,0-4.94-5.58,11.2,11.2,0,0,0-8.82-.93,10.06,10.06,0,0,0-4,2.56l.51-.12-.51.12a3.61,3.61,0,0,0-.83,1,3.86,3.86,0,0,0-.47,1.88,2.94,2.94,0,0,0,.21.78,3.36,3.36,0,0,0,1.48,1.6,6.65,6.65,0,0,0,1.57.66,4.85,4.85,0,0,0,1.86,0,2.46,2.46,0,0,0,1.22-.43,2.23,2.23,0,0,0,.58-.56,3.26,3.26,0,0,0,.49-1,2.88,2.88,0,0,0-.06-1.79,3,3,0,0,0-1.69-1.59,2.92,2.92,0,0,0-2.24-.21,2.28,2.28,0,0,0-1.32,1.31,2,2,0,0,0-.06,1,2.08,2.08,0,0,0,1.29,1.57c1.12.39,2.55-.44,2.59-1.25a1.33,1.33,0,0,0-1.23-1.24,1.28,1.28,0,0,0-.87.4c.48,0,.82.09.86.26s-.27.42-.55.48a1,1,0,0,1-1.07-.53,1.06,1.06,0,0,1,.19-1.1,1.76,1.76,0,0,1,1.86-.27,2.09,2.09,0,0,1,1.43,1.61,2,2,0,0,1-.39,1.43,2.39,2.39,0,0,1-1.34.92,2.72,2.72,0,0,1-1.59,0,3,3,0,0,1-2-1.94,2.17,2.17,0,0,1-.07-1.1,2.88,2.88,0,0,1,1.08-1.56,5.29,5.29,0,0,1,.9-.65,7.81,7.81,0,0,1,7.2,3.27,7.49,7.49,0,0,1,.25,7.56c-1.45,2.5-3.74,2.22-6.06,5.07a11.53,11.53,0,0,0-2.35,5.19c2.39-3.68,4.7-4.86,6.37-5.24a16.93,16.93,0,0,0,4.73-1.18,11.11,11.11,0,0,0,3.07-2.21A8.24,8.24,0,0,0,652.51,143.51Z"/><path class="cls-1" d="M655.42,156.81c-2-2.88-3.72-3.5-4.91-3.49-1.62,0-2.4,1.22-5.87,2.12-1.5.39-1.74.33-2.65.52-1.65.33-3.86,1.57-6.21,5.64a15.25,15.25,0,0,1-5.19.66,15.67,15.67,0,0,1-8.23-2.93,17,17,0,0,0,3.75,5.4,13,13,0,0,0,7.92,4.14,11.73,11.73,0,0,0,6.77-1.55,19.4,19.4,0,0,0,6.33-6.26c1.53-2.24,1.81-3.42,3.33-4.19A6.65,6.65,0,0,1,655.42,156.81Z"/><path class="cls-1" d="M638.78,135.79c-.84-.51-4.08-2.32-7.6-1.26-4.94,1.5-8,8-6,13.09,2.43,6.13,10.91,7.2,15,4.66a7,7,0,0,0,3.23-4.27,7.13,7.13,0,0,0-1.11-5.45,4.7,4.7,0,0,1-1.47,2.95c-1.77,1.55-4.5,1.13-6.15.07-2.25-1.43-3.74-4.79-2.19-7.43A5.63,5.63,0,0,1,638.78,135.79Z"/><path class="cls-1" d="M613.13,147.21a10.91,10.91,0,0,1,2.71-.71,13,13,0,0,1,8.92,2.39,12,12,0,0,0,4,4.12,12.32,12.32,0,0,0,8.14,1.71,7.77,7.77,0,0,0-1.53,2.76,11.09,11.09,0,0,0-.36,3.82s0-.08,0-.27a16.34,16.34,0,0,1-8.29-.33,15.5,15.5,0,0,1-4.28-2.08,11.89,11.89,0,0,1-4.1-3.63,9.6,9.6,0,0,1-1.26-2.34c-.65-1.77-.38-2.5-.9-3.56C615.83,148.46,615.09,147.66,613.13,147.21Z"/><path class="cls-1" d="M620,133.3a8.18,8.18,0,0,1,6.58,3.65,10.17,10.17,0,0,0-2,11,12.21,12.21,0,0,0-4.5-2,12.38,12.38,0,0,0-2.34-.25,6.79,6.79,0,0,1-1.33-5.12,7.67,7.67,0,0,1,1.79-3.31c.87-.92,1.7-1.31,1.95-2.36A2.78,2.78,0,0,0,620,133.3Z"/><path class="cls-1" d="M599.72,154a20.39,20.39,0,0,0,.77,9.08,19.88,19.88,0,0,0,1.63,3.65,5,5,0,0,1-1.1-.93,5.06,5.06,0,0,1-.74-1,13.09,13.09,0,0,0,1.21,3.51,12.66,12.66,0,0,0,3.15,3.9,3.34,3.34,0,0,1-1.1-.38,3.14,3.14,0,0,1-.81-.66,10.57,10.57,0,0,0,.92,1.91,11,11,0,0,0,3,3.23,2.32,2.32,0,0,1-.9,0,2.21,2.21,0,0,1-.94-.39,14.3,14.3,0,0,0,16.89,2.86,41,41,0,0,1-19.91-20.86,39.57,39.57,0,0,0,21.75,19,16.53,16.53,0,0,0-1.06-11.52,16.35,16.35,0,0,0-6.72-7,6.67,6.67,0,0,1,1.77,3.89,9.7,9.7,0,0,0-3.91-4.46,9.57,9.57,0,0,0-4.54-1.3,7.17,7.17,0,0,1,2.08,1.35,7.59,7.59,0,0,1,1.12,1.33,10.4,10.4,0,0,0-2.47-1.56c-3.09-1.4-5.18-.51-8-2A9.24,9.24,0,0,1,599.72,154Z"/><path class="cls-1" d="M661.57,174.91a16.63,16.63,0,0,1-4.94,5.62,15.78,15.78,0,0,1-2.86,1.62,4.25,4.25,0,0,0,1.18-.08,4.11,4.11,0,0,0,1-.32,10.12,10.12,0,0,1-2.51,1.72,10.41,10.41,0,0,1-4,1,2.49,2.49,0,0,0,.91.29,2.79,2.79,0,0,0,.86,0,8.76,8.76,0,0,1-1.54.81,8.93,8.93,0,0,1-3.58.65,1.89,1.89,0,0,0,.58.46,1.83,1.83,0,0,0,.81.2,12,12,0,0,1-8-1.44,11.85,11.85,0,0,1-4.58-4.92,33.7,33.7,0,0,0,23.33-4.05,32.59,32.59,0,0,1-23.63,1.92,13.63,13.63,0,0,1,6.33-7.1,13.44,13.44,0,0,1,7.84-1.32,5.4,5.4,0,0,0-3.07,1.7,7.92,7.92,0,0,1,4.76-1,7.84,7.84,0,0,1,3.63,1.35,5.95,5.95,0,0,0-3.42.21,8.91,8.91,0,0,1,2.4.17c2.72.59,3.66,2.2,6.23,2.57A7,7,0,0,0,661.57,174.91Z"/><path class="cls-1" d="M633.14,134a7.76,7.76,0,0,1,3.4.12c1.61.45,2,1.19,3.83,1.51.59.1.73.05,2.19.24.92.12,1.67.24,2.16.32a8,8,0,0,0-3.87-3.32C637,131.34,633.44,133.76,633.14,134Z"/><path class="cls-1" d="M263.81,85.59c-2-2.65-1.88-4.67-1.77-5.37.17-1.17.88-2.33,2.3-4.64.72-1.17,1.36-2.1,1.79-2.71A8.65,8.65,0,0,1,267.39,75a8.81,8.81,0,0,1-.16,7A8.43,8.43,0,0,1,263.81,85.59Z"/><path class="cls-1" d="M254.76,88.76c-1.31-3.07-.66-5-.38-5.65.46-1.09,1.44-2,3.39-3.91,1-1,1.83-1.7,2.41-2.19a9.23,9.23,0,0,1,.68,2.41,8.81,8.81,0,0,1-1.89,6.7A8.45,8.45,0,0,1,254.76,88.76Z"/><path class="cls-1" d="M262.82,86.81c2,2.68,4,3.09,4.68,3.18,1.17.15,2.48-.21,5.09-.94,1.32-.37,2.39-.73,3.1-1a8.34,8.34,0,0,0-1.74-1.8,8.76,8.76,0,0,0-6.73-1.77A8.45,8.45,0,0,0,262.82,86.81Z"/><path class="cls-1" d="M254.26,90.08c1.65,2.9,3.58,3.55,4.27,3.72,1.14.29,2.48.09,5.16-.33,1.36-.21,2.46-.43,3.2-.6a8.65,8.65,0,0,0-1.51-2,8.83,8.83,0,0,0-6.47-2.56A8.48,8.48,0,0,0,254.26,90.08Z"/><path class="cls-1" d="M273.27,32.13c-1.94-2.71-1.72-4.73-1.59-5.43.21-1.16,1-2.29,2.46-4.56.75-1.14,1.42-2.05,1.88-2.65a9.31,9.31,0,0,1,1.18,2.21,8.77,8.77,0,0,1-.39,7A8.44,8.44,0,0,1,273.27,32.13Z"/><path class="cls-1" d="M265.14,38.38c-2.17-2.54-2.13-4.57-2.06-5.27.1-1.18.75-2.37,2-4.76.65-1.21,1.24-2.17,1.64-2.81a9,9,0,0,1,1.37,2.09,8.8,8.8,0,0,1,.23,7A8.48,8.48,0,0,1,265.14,38.38Z"/><path class="cls-1" d="M264.9,40.32c1.8,2.81,3.76,3.35,4.46,3.49,1.15.23,2.48-.05,5.14-.6,1.34-.28,2.43-.57,3.16-.77a8.85,8.85,0,0,0-8.21-4.13A8.42,8.42,0,0,0,264.9,40.32Z"/><path class="cls-1" d="M271.62,34.12c1.85,2.77,3.81,3.28,4.51,3.41,1.16.21,2.49-.08,5.13-.68,1.34-.3,2.43-.6,3.15-.81a8.82,8.82,0,0,0-8.27-4A8.44,8.44,0,0,0,271.62,34.12Z"/><path class="cls-1" d="M230.33,62.4c-2.25,2.47-4.27,2.68-5,2.7-1.18,0-2.45-.46-5-1.45-1.28-.5-2.31-1-3-1.28a8.55,8.55,0,0,1,1.91-1.62,8.75,8.75,0,0,1,6.87-1.08A8.53,8.53,0,0,1,230.33,62.4Z"/><path class="cls-1" d="M235.05,63.37c0,3.34-1.32,4.86-1.83,5.36-.84.82-2.11,1.32-4.63,2.3-1.28.5-2.35.86-3.07,1.09a8.7,8.7,0,0,1,.31-2.49,8.8,8.8,0,0,1,4.32-5.45A8.41,8.41,0,0,1,235.05,63.37Z"/><path class="cls-1" d="M238.16,63c.49-3.3-.63-5-1.07-5.56-.72-.93-1.9-1.6-4.27-2.92-1.19-.68-2.2-1.18-2.88-1.5a8.63,8.63,0,0,0-.05,2.5,8.83,8.83,0,0,0,3.53,6A8.45,8.45,0,0,0,238.16,63Z"/><path class="cls-1" d="M217.33,94.56c1.1-3.15.33-5,0-5.66-.53-1.06-1.56-1.94-3.63-3.69-1.05-.89-1.94-1.58-2.54-2a8.77,8.77,0,0,0-.53,2.45A8.88,8.88,0,0,0,213,92.2,8.53,8.53,0,0,0,217.33,94.56Z"/><path class="cls-1" d="M207,91.93c-2.25,2.47-4.27,2.68-5,2.7-1.18,0-2.45-.46-5-1.45-1.28-.5-2.31-1-3-1.28A8.33,8.33,0,0,1,196,90.28a8.75,8.75,0,0,1,6.87-1.08A8.44,8.44,0,0,1,207,91.93Z"/><path class="cls-1" d="M216.34,95.6c-1.34,3.06-3.19,3.9-3.85,4.14-1.11.41-2.46.35-5.17.22-1.38-.07-2.5-.18-3.25-.26a8.51,8.51,0,0,1,1.3-2.14,8.73,8.73,0,0,1,6.17-3.22A8.44,8.44,0,0,1,216.34,95.6Z"/><path class="cls-1" d="M273.37,122.17c-.06-3.34,1.27-4.87,1.77-5.37.84-.84,2.1-1.34,4.62-2.35,1.27-.51,2.34-.88,3.05-1.12a8.5,8.5,0,0,1-.28,2.49,8.78,8.78,0,0,1-4.27,5.5A8.4,8.4,0,0,1,273.37,122.17Z"/><path class="cls-1" d="M240.72,100.92a21.29,21.29,0,0,1-7.56.56c-6.56-.7-9.62-4.25-16.27-7.11a40.78,40.78,0,0,0-13.44-3.16,70,70,0,0,1,11.64,4.29c7.92,3.76,11.09,7.14,18.52,9.15a37.18,37.18,0,0,0,8,1.24C241.33,104.23,241,102.58,240.72,100.92Z"/><path class="cls-1" d="M251.79,166.54a8.29,8.29,0,0,0-2.26-3.61c-4.25-4.35-10.95-5.88-10.95-5.88-5.62-1.33-16.92-2.45-27.45,4.07a30.26,30.26,0,0,0-9.82,9.37c-2,3-2.73,5.5-4.07,9.83A79.24,79.24,0,0,0,194,200.54c0,.17,0,.32,0,.5-2.25.07-4.65.13-7.78.17-9,.12-16.31-.06-21-.22a20.06,20.06,0,0,1-7.91-2,22.13,22.13,0,0,1-7.23-5.58,24.53,24.53,0,0,1-5-16.86,24.21,24.21,0,0,1,5.72-13.41c.85-.82,6.28-5.93,14.16-5.27A18.67,18.67,0,0,1,180.53,170c.2.85,1.68,7.45-2.72,13.1a15.51,15.51,0,0,1-14.68,5.65A10.53,10.53,0,0,1,155.68,173c.1-.31,1.71-5.07,6.55-6.33a9.53,9.53,0,0,1,9.94,3.62,7.47,7.47,0,0,0-8.36-6.55,14.75,14.75,0,0,0-12,21.83,17.29,17.29,0,0,0,7.68,6.18c5.79,2.3,11,.52,12.95-.15a21.63,21.63,0,0,0,10.54-8,21.15,21.15,0,0,0,.9-17.16,20.82,20.82,0,0,0-10.39-10.85,31.11,31.11,0,0,0-10.94-1,.16.16,0,0,0,0-.07,4.79,4.79,0,0,0,1.27-.48,6.12,6.12,0,0,0,1.26-.93c.41-.16.86-.34,1.32-.56s.95-.47,1.36-.7a7.7,7.7,0,0,0,2-1.27c.76-.68.76-1,1.82-1.91.38-.34.67-.56,1.17-1.06s.68-.72.88-.94a12.52,12.52,0,0,0,1.35-1.11c1.36-1.31,1.59-2.18,3.11-4.31a11.36,11.36,0,0,1,2.43-2.85,12.52,12.52,0,0,1,2.95-1.49,11.51,11.51,0,0,1,1.23-.38c.25,0,.48-.14.72-.18a.59.59,0,0,0,.31-.12.55.55,0,0,0,.14-.45,3.38,3.38,0,0,0-.16-1,2.46,2.46,0,0,0-1-1.41,2.75,2.75,0,0,0-1.47-.25,4.78,4.78,0,0,1-.87,0,3.59,3.59,0,0,1-.8-.16,2.39,2.39,0,0,0-.68-.84c-.29-.22-.41-.21-.78-.51a4.84,4.84,0,0,0-.55-.48,2.92,2.92,0,0,0-.56-.28,7.08,7.08,0,0,0-1.42-.49,4.61,4.61,0,0,0-2,.1c.63-.59,1.48-1.4,2.42-2.43.29-.32.67-.76,1.43-1.64a17.82,17.82,0,0,0,2.51-3.23,15.5,15.5,0,0,0,.72-2,19.18,19.18,0,0,0,1-3.73,13,13,0,0,0-.26-3.6,38.74,38.74,0,0,0-1.39-5.74,23.8,23.8,0,0,0-1.4-3.49c-.83-1.62-.6-.63-1.76-2.48-.14-.21-.38-.61-.76-.63s-.68.37-.79.52a11,11,0,0,0,.21,1.26,12.67,12.67,0,0,0,.41,1.47,14.53,14.53,0,0,0-1.18-.89c-1.38-.94-1.73-.84-1.87-.77a.69.69,0,0,0-.3.32c0,.07,0,.18,0,.3a4.51,4.51,0,0,0,.47,1.32,6.3,6.3,0,0,1,.51,1,2.78,2.78,0,0,1,.13.8c-.52-.38-.92-.71-1.2-1-.62-.54-.9-.86-1.43-1a1,1,0,0,0-.79.11c-.34.33-.07,1.08,0,1.15.13.36.3.43.53.84a2.81,2.81,0,0,1,.32,1,2.74,2.74,0,0,0-1.85-.74,2.61,2.61,0,0,0-1.15.29.71.71,0,0,1,.27.09.91.91,0,0,1,.25.63c.05.6.49.79,1,1.61a5.69,5.69,0,0,1,.6,1.53,3.12,3.12,0,0,0-.79-.36,6.22,6.22,0,0,0-1.11-.14,5.29,5.29,0,0,0-1.27-.13,2.72,2.72,0,0,0-.58.11,2.28,2.28,0,0,0,0,.31,9.17,9.17,0,0,0,0,1.64,3.43,3.43,0,0,0,.76,1.66,5.83,5.83,0,0,0-1.15,1.36,7.6,7.6,0,0,0-1,2.89,15.18,15.18,0,0,0-.25,3c-.16.18-.4.46-.67.83a19.46,19.46,0,0,0-2.18,3.92,14.62,14.62,0,0,1-1.35,2.75,11.2,11.2,0,0,1-1.36,1.53c-.5.44-.73.55-1.12.95a5.43,5.43,0,0,0-1.1,1.59l-1,.05a29,29,0,0,1-4.93-2.92,37.72,37.72,0,0,1-5.71-5.28c-.44-.49-1.4-1.58-2.72-2.94-.46-.48-.61-.62-1-1a20.13,20.13,0,0,0-1.81-1.94,4.7,4.7,0,0,0-2.06-.89c-2.34-.06-4.23,0-5.56,0a29.75,29.75,0,0,1-3.95.06,29.37,29.37,0,0,1-4.2-.8c-3-.62-3.11-.51-6.72-1.26a25.78,25.78,0,0,1-4.16-1.1,21.9,21.9,0,0,1-2.86-1.32,11.15,11.15,0,0,1-2.17-1.34,9.72,9.72,0,0,1-1.53-1.48c-.31-.38-.41-.55-1-1.33-.42-.57-.77-1-1-1.3a.76.76,0,0,0-.59.32.8.8,0,0,0-.12.49c.09.37.22,1,.37,1.67a24.51,24.51,0,0,0,.61,2.7,9.88,9.88,0,0,0,1,2,20.73,20.73,0,0,0,2.43,3.23,21.41,21.41,0,0,0,2.15,2.17,20.53,20.53,0,0,0,2.25,1.68l.71.44v.2a12.74,12.74,0,0,1-2.73-.94c-.74-.37-1.14-.66-2.74-1.64l-1.8-1.07a1.66,1.66,0,0,0-.55.69c-.24.6,0,1.18.48,2.26a7.35,7.35,0,0,0,1.2,2.1,19.45,19.45,0,0,0,1.61,1.41c.83.69,1.24,1,1.4,1.16a14.39,14.39,0,0,0,2.44,1.31c1.29.61,1.94.91,2.68,1.19a23.87,23.87,0,0,0,4.2,1.15l.06.34c-.87.1-1.6.12-2.15.13a9.32,9.32,0,0,1-1.45-.05,5.54,5.54,0,0,0-1.47-.23,1.6,1.6,0,0,0-1,.29,1.3,1.3,0,0,0-.41.68,6.79,6.79,0,0,0,.41.83,8.48,8.48,0,0,0,4.85,3.56,12.77,12.77,0,0,0,3.43.41,20.7,20.7,0,0,0,4.21-.22,17.28,17.28,0,0,0,2-.46,3.42,3.42,0,0,1-.34.49,5.67,5.67,0,0,1-1.93,1.38c-.45.24-1,.52-1.67.84a2.38,2.38,0,0,0,.46,1,3.45,3.45,0,0,0,2.26,1,9.93,9.93,0,0,0,2,.13,14.28,14.28,0,0,0,1.73-.12c-.28.2-.64.46-1,.79-.61.51-.7.67-.73.84a1.28,1.28,0,0,0,.51,1,4.73,4.73,0,0,0,1.12,1.19,6.28,6.28,0,0,0,2.58,1c1.14.25,2.22.47,3.25.67l.24.08a5.32,5.32,0,0,0,.88,2,5.4,5.4,0,0,0,1,1.08,3,3,0,0,1-.19.77,3.67,3.67,0,0,1-1.42,1.65,15.71,15.71,0,0,1-3.16,1.81c-2.29.86-4.56,1.79-6.85,2.67-1.13.43-2.8,1.11-4.8,2.08a1.25,1.25,0,0,0-.82,1.12c0,.39.44.62.82.83a3.5,3.5,0,0,0,1.82.45,3.42,3.42,0,0,0,1.27.74,3.32,3.32,0,0,0,1.68.05.65.65,0,0,0,0,.32c.4.85,3.33.2,3.59.14l.84.65a3.27,3.27,0,0,0,1.28.77,2.06,2.06,0,0,0,.92-.16A6.21,6.21,0,0,0,137,163c1-.33,1.89-.65,2.6-.93s1.55-.61,2.64-1.11c.93-.42.86-.43,2.27-1.09,1.15-.53,1.25-.58,1.57-.76a9.22,9.22,0,0,0,.83-.56,33.14,33.14,0,0,0,4.63-.37,21.2,21.2,0,0,0-4.68,3.92c-6,6.69-5.89,15.48-5.87,17.61a28,28,0,0,0,3.16,12.88c6.05,11.22,18.53,13.84,20.55,14.23,12.27.54,22.11.67,29.14.68h0l-.22,60.31h0c-7.25,6.33-11.17,6.71-13.44,5.76-3.22-1.35-3.73-5.64-7.57-6.66-2.6-.7-5.19.52-6.89,1.58,2-.5,4.63-.81,6.78.56s1.92,3.06,4.06,4.86c2.53,2.12,5.71,2.21,7.68,2.26,3.95.1,4.88-1.18,10.62-2.71,6.88-1.84,10.35-2.76,14.12-1.36,3.15,1.17,4.44,3.19,8.13,3.28,2.12.05,2.35-.61,4.63-.79,5.9-.48,10.1,3.41,10.5,2.82s-2.15-4.26-6.32-5.42c-4.83-1.34-7.81,1.93-11.07.23-1.32-.7-2.88-2.3-3.61-6.44h0l-.39-58.29h.4c5.71.07,10.15.19,18.29.22,3,0,5.39,0,7,0a14.66,14.66,0,0,1-5.65-4.06,14,14,0,0,1-1.81-2.71c-7-.27-13.18-.34-18.29-.32v-1L211,173a11.75,11.75,0,0,1,1.92-7,11.49,11.49,0,0,1,3.73-3.51,19.24,19.24,0,0,1,5.19-2,14.14,14.14,0,0,1,6.89-.22,12.69,12.69,0,0,1,4.86,2.37,14.49,14.49,0,0,1,1.81,1.24,14.9,14.9,0,0,1,2.59,2.71c2.44,3.24,1.64,4.59,3.5,6.21a6.88,6.88,0,0,0,4.3,1.58c.48,0,3.86,0,5.53-2.59A6.36,6.36,0,0,0,251.79,166.54Z"/><path class="cls-2" d="M411.28,226.93a5.12,5.12,0,0,0-2.73-.24,5.75,5.75,0,0,0,2.87-1.65c2.55-2.82.7-7.33.5-7.79-.84-2-3-5.09-6.1-5.06a5.17,5.17,0,0,0-2.67.83,5.27,5.27,0,0,0,1.8-2.11c1.27-2.78-.54-6-2-7.66s-4.63-3.79-7.57-2.69a5.53,5.53,0,0,0-2.45,1.92,5,5,0,0,0,.9-2.51c.2-3-2.67-5.46-4.87-6.47s-5.91-1.59-8.11.56a5.47,5.47,0,0,0-1.4,2.54,5.26,5.26,0,0,0-.2-2.8c-1.32-3.53-6.32-3.92-6.64-3.94-2.41-.15-6.13.62-7.46,3.44a5.37,5.37,0,0,0-.46,2.75,4.74,4.74,0,0,0-1-2.06c-2-2.34-6.25-2.09-9-.71-.48.24-4.49,2.3-4.45,5.77a5.12,5.12,0,0,0,.85,2.69,5.33,5.33,0,0,0-2.36-1.87c-2.5-1-5.79.21-8.16,3-2,2.06-2.7,4.73-1.84,6.87a5.32,5.32,0,0,0,1.66,2.14,5.09,5.09,0,0,0-2.67-.84c-3.16-.05-5.6,3.25-6.46,5.83-.26.76-1.5,4.84.88,7.23a5.07,5.07,0,0,0,2.54,1.35,5.33,5.33,0,0,0-3,.19c-2.92,1.13-3.89,5-3.81,7.45,0,.39.22,5.26,3.64,6.75a5.47,5.47,0,0,0,2.74.38,5.12,5.12,0,0,0-2.4,1.24c-2.25,2.11-1.84,6-.84,8.3.14.32,2.17,4.89,5.91,4.92a5.39,5.39,0,0,0,2.87-.87,5.19,5.19,0,0,0-1.74,2c-1.31,2.74.46,6,2,7.74.16.17,3.81,4.09,7.49,2.76a5.49,5.49,0,0,0,2.47-1.92,5.36,5.36,0,0,0-.89,2.82c0,3.41,3.64,5.48,4.33,5.85,2.36,1.26,6.34,2,8.64-.23a5.48,5.48,0,0,0,1.44-2.57,5.28,5.28,0,0,0,.23,3c1.33,3.32,5.92,3.71,6.49,3.75,2.53.17,6.43-.66,7.67-3.55a5.23,5.23,0,0,0,.31-2.91,5.17,5.17,0,0,0,1.19,2.49c2.05,2.28,5.93,1.86,8.25.9.32-.13,4.95-2.12,5.05-5.91a5.35,5.35,0,0,0-.8-2.86,5.57,5.57,0,0,0,2.44,1.95c3.57,1.39,7.19-2.07,7.45-2.33,1.62-1.59,3.59-4.78,2.44-7.64a5.42,5.42,0,0,0-1.73-2.21,5.17,5.17,0,0,0,2.67.9c3,.1,5.31-2.85,6.23-4.93,1-2.39,1.43-6.25-.81-8.3a5.08,5.08,0,0,0-2.35-1.16,5.53,5.53,0,0,0,2.88-.28c3.34-1.32,3.86-5.72,3.91-6.22C415.32,232,414.2,228.07,411.28,226.93Zm-39.82,31.31a24.82,24.82,0,1,1,24.81-24.82A24.82,24.82,0,0,1,371.46,258.24Z"/><path class="cls-2" d="M371.46,215.56a17.87,17.87,0,1,0,17.86,17.86A17.87,17.87,0,0,0,371.46,215.56Zm0,31.06a13.2,13.2,0,1,1,13.19-13.2A13.2,13.2,0,0,1,371.46,246.62Z"/></svg>